STARTFONT 2.1
COMMENT
COMMENT Converted from OpenType font "STARWARS.TTF" by "otf2bdf 3.0".
COMMENT
FONT -FreeType-STARWARS-Medium-R-Normal--9-90-75-75-P-59-ISO10646-1
SIZE 9 75 75
FONTBOUNDINGBOX 11 10 -1 -2
STARTPROPERTIES 19
FOUNDRY "FreeType"
FAMILY_NAME "STARWARS"
WEIGHT_NAME "Medium"
SLANT "R"
SETWIDTH_NAME "Normal"
ADD_STYLE_NAME ""
PIXEL_SIZE 9
POINT_SIZE 90
RESOLUTION_X 75
RESOLUTION_Y 75
SPACING "P"
AVERAGE_WIDTH 59
CHARSET_REGISTRY "ISO10646"
CHARSET_ENCODING "1"
FONT_ASCENT 5
FONT_DESCENT 1
COPYRIGHT "Star Wars Font  by Jose Gonzalez Pareja - 1998 - FREEWARE  Design Copyright by Lucasfilm"
_OTF_FONTFILE "STARWARS.TTF"
_OTF_PSNAME "STARWARS"
ENDPROPERTIES
CHARS 191
STARTCHAR 0020
ENCODING 32
SWIDTH 533 0
DWIDTH 5 0
BBX 0 0 0 0
BITMAP
ENDCHAR
STARTCHAR 0021
ENCODING 33
SWIDTH 213 0
DWIDTH 2 0
BBX 2 6 0 0
BITMAP
C0
C0
C0
C0
00
C0
ENDCHAR
STARTCHAR 0022
ENCODING 34
SWIDTH 533 0
DWIDTH 5 0
BBX 4 2 0 4
BITMAP
F0
F0
ENDCHAR
STARTCHAR 0023
ENCODING 35
SWIDTH 640 0
DWIDTH 6 0
BBX 6 6 0 0
BITMAP
2C
FC
68
FC
FC
D0
ENDCHAR
STARTCHAR 0024
ENCODING 36
SWIDTH 640 0
DWIDTH 6 0
BBX 6 8 0 -1
BITMAP
10
FC
D0
F8
1C
DC
78
10
ENDCHAR
STARTCHAR 0025
ENCODING 37
SWIDTH 960 0
DWIDTH 9 0
BBX 8 7 1 -1
BITMAP
E4
A8
E8
1F
29
2F
40
ENDCHAR
STARTCHAR 0026
ENCODING 38
SWIDTH 853 0
DWIDTH 8 0
BBX 8 6 0 0
BITMAP
7C
6C
38
FA
CE
7B
ENDCHAR
STARTCHAR 0027
ENCODING 39
SWIDTH 213 0
DWIDTH 2 0
BBX 2 2 0 4
BITMAP
C0
C0
ENDCHAR
STARTCHAR 0028
ENCODING 40
SWIDTH 320 0
DWIDTH 3 0
BBX 3 8 0 -2
BITMAP
60
40
C0
C0
C0
C0
60
20
ENDCHAR
STARTCHAR 0029
ENCODING 41
SWIDTH 320 0
DWIDTH 3 0
BBX 3 8 0 -2
BITMAP
C0
60
60
60
60
60
40
C0
ENDCHAR
STARTCHAR 002A
ENCODING 42
SWIDTH 426 0
DWIDTH 4 0
BBX 4 3 0 3
BITMAP
60
F0
60
ENDCHAR
STARTCHAR 002B
ENCODING 43
SWIDTH 533 0
DWIDTH 5 0
BBX 6 4 -1 1
BITMAP
30
FC
FC
30
ENDCHAR
STARTCHAR 002C
ENCODING 44
SWIDTH 213 0
DWIDTH 2 0
BBX 2 4 0 -2
BITMAP
C0
C0
40
80
ENDCHAR
STARTCHAR 002D
ENCODING 45
SWIDTH 320 0
DWIDTH 3 0
BBX 3 1 0 2
BITMAP
E0
ENDCHAR
STARTCHAR 002E
ENCODING 46
SWIDTH 213 0
DWIDTH 2 0
BBX 2 2 0 0
BITMAP
C0
C0
ENDCHAR
STARTCHAR 002F
ENCODING 47
SWIDTH 320 0
DWIDTH 3 0
BBX 3 6 0 0
BITMAP
20
40
40
40
40
80
ENDCHAR
STARTCHAR 0030
ENCODING 48
SWIDTH 640 0
DWIDTH 6 0
BBX 6 6 0 0
BITMAP
78
CC
CC
CC
CC
78
ENDCHAR
STARTCHAR 0031
ENCODING 49
SWIDTH 320 0
DWIDTH 3 0
BBX 3 6 0 0
BITMAP
E0
E0
60
60
60
60
ENDCHAR
STARTCHAR 0032
ENCODING 50
SWIDTH 640 0
DWIDTH 6 0
BBX 6 6 0 0
BITMAP
78
0C
1C
38
70
FC
ENDCHAR
STARTCHAR 0033
ENCODING 51
SWIDTH 640 0
DWIDTH 6 0
BBX 6 6 0 0
BITMAP
78
0C
38
0C
FC
F8
ENDCHAR
STARTCHAR 0034
ENCODING 52
SWIDTH 640 0
DWIDTH 6 0
BBX 6 7 1 0
BITMAP
18
38
78
D8
FC
FC
18
ENDCHAR
STARTCHAR 0035
ENCODING 53
SWIDTH 640 0
DWIDTH 6 0
BBX 6 6 0 0
BITMAP
F8
C0
F8
0C
FC
F8
ENDCHAR
STARTCHAR 0036
ENCODING 54
SWIDTH 640 0
DWIDTH 6 0
BBX 6 6 0 0
BITMAP
78
C0
F8
CC
CC
78
ENDCHAR
STARTCHAR 0037
ENCODING 55
SWIDTH 640 0
DWIDTH 6 0
BBX 6 6 0 0
BITMAP
FC
1C
18
30
30
60
ENDCHAR
STARTCHAR 0038
ENCODING 56
SWIDTH 640 0
DWIDTH 6 0
BBX 6 6 0 0
BITMAP
78
CC
F8
CC
CC
78
ENDCHAR
STARTCHAR 0039
ENCODING 57
SWIDTH 640 0
DWIDTH 6 0
BBX 6 6 0 0
BITMAP
78
CC
DC
2C
7C
78
ENDCHAR
STARTCHAR 003A
ENCODING 58
SWIDTH 213 0
DWIDTH 2 0
BBX 2 5 0 0
BITMAP
C0
C0
00
C0
C0
ENDCHAR
STARTCHAR 003B
ENCODING 59
SWIDTH 213 0
DWIDTH 2 0
BBX 2 5 0 0
BITMAP
C0
C0
00
C0
C0
ENDCHAR
STARTCHAR 003C
ENCODING 60
SWIDTH 640 0
DWIDTH 6 0
BBX 6 6 0 0
BITMAP
04
3C
E0
F0
1C
04
ENDCHAR
STARTCHAR 003D
ENCODING 61
SWIDTH 640 0
DWIDTH 6 0
BBX 5 3 0 1
BITMAP
F8
00
F8
ENDCHAR
STARTCHAR 003E
ENCODING 62
SWIDTH 640 0
DWIDTH 6 0
BBX 6 6 0 0
BITMAP
80
E0
3C
3C
E0
80
ENDCHAR
STARTCHAR 003F
ENCODING 63
SWIDTH 640 0
DWIDTH 6 0
BBX 5 6 0 0
BITMAP
F0
D8
38
30
00
30
ENDCHAR
STARTCHAR 0040
ENCODING 64
SWIDTH 853 0
DWIDTH 8 0
BBX 8 8 0 -1
BITMAP
3C
42
9D
A5
A5
AB
7F
3C
ENDCHAR
STARTCHAR 0041
ENCODING 65
SWIDTH 853 0
DWIDTH 8 0
BBX 8 6 0 0
BITMAP
3C
7C
7E
66
7E
E7
ENDCHAR
STARTCHAR 0042
ENCODING 66
SWIDTH 746 0
DWIDTH 7 0
BBX 7 6 0 0
BITMAP
FC
CC
FC
C6
C6
FC
ENDCHAR
STARTCHAR 0043
ENCODING 67
SWIDTH 640 0
DWIDTH 6 0
BBX 5 6 0 0
BITMAP
78
C0
C0
C0
C0
78
ENDCHAR
STARTCHAR 0044
ENCODING 68
SWIDTH 746 0
DWIDTH 7 0
BBX 7 6 0 0
BITMAP
FC
C6
C6
C6
C6
FC
ENDCHAR
STARTCHAR 0045
ENCODING 69
SWIDTH 746 0
DWIDTH 7 0
BBX 6 6 0 0
BITMAP
FC
C0
C0
F8
C0
FC
ENDCHAR
STARTCHAR 0046
ENCODING 70
SWIDTH 640 0
DWIDTH 6 0
BBX 6 6 0 0
BITMAP
FC
C0
C0
F8
C0
C0
ENDCHAR
STARTCHAR 0047
ENCODING 71
SWIDTH 746 0
DWIDTH 7 0
BBX 7 6 0 0
BITMAP
78
C0
C0
CE
C6
7E
ENDCHAR
STARTCHAR 0048
ENCODING 72
SWIDTH 746 0
DWIDTH 7 0
BBX 8 6 0 0
BITMAP
C7
C6
FE
C6
C6
C6
ENDCHAR
STARTCHAR 0049
ENCODING 73
SWIDTH 320 0
DWIDTH 3 0
BBX 2 6 0 0
BITMAP
C0
C0
C0
C0
C0
C0
ENDCHAR
STARTCHAR 004A
ENCODING 74
SWIDTH 533 0
DWIDTH 5 0
BBX 4 6 1 0
BITMAP
30
30
30
30
30
E0
ENDCHAR
STARTCHAR 004B
ENCODING 75
SWIDTH 853 0
DWIDTH 8 0
BBX 7 6 0 0
BITMAP
CE
D8
F0
F0
FC
CE
ENDCHAR
STARTCHAR 004C
ENCODING 76
SWIDTH 640 0
DWIDTH 6 0
BBX 5 6 0 0
BITMAP
C0
C0
C0
C0
C0
F8
ENDCHAR
STARTCHAR 004D
ENCODING 77
SWIDTH 853 0
DWIDTH 8 0
BBX 8 6 0 0
BITMAP
C3
E7
FF
FF
DB
D3
ENDCHAR
STARTCHAR 004E
ENCODING 78
SWIDTH 746 0
DWIDTH 7 0
BBX 8 6 0 0
BITMAP
E7
E6
F6
DE
CE
C6
ENDCHAR
STARTCHAR 004F
ENCODING 79
SWIDTH 853 0
DWIDTH 8 0
BBX 7 6 0 0
BITMAP
7C
C6
C6
C6
C6
7C
ENDCHAR
STARTCHAR 0050
ENCODING 80
SWIDTH 746 0
DWIDTH 7 0
BBX 7 6 0 0
BITMAP
FC
C6
C6
FC
C0
C0
ENDCHAR
STARTCHAR 0051
ENCODING 81
SWIDTH 853 0
DWIDTH 8 0
BBX 7 7 0 -1
BITMAP
7C
C6
C6
C6
DE
7E
02
ENDCHAR
STARTCHAR 0052
ENCODING 82
SWIDTH 746 0
DWIDTH 7 0
BBX 8 6 0 0
BITMAP
FC
FE
C6
FE
DC
CF
ENDCHAR
STARTCHAR 0053
ENCODING 83
SWIDTH 533 0
DWIDTH 5 0
BBX 7 6 -1 0
BITMAP
3E
70
38
38
1C
FC
ENDCHAR
STARTCHAR 0054
ENCODING 84
SWIDTH 746 0
DWIDTH 7 0
BBX 6 6 0 0
BITMAP
FC
30
30
30
30
30
ENDCHAR
STARTCHAR 0055
ENCODING 85
SWIDTH 746 0
DWIDTH 7 0
BBX 7 6 0 0
BITMAP
C6
C6
C6
C6
FE
7C
ENDCHAR
STARTCHAR 0056
ENCODING 86
SWIDTH 853 0
DWIDTH 8 0
BBX 8 6 0 0
BITMAP
E7
66
66
7E
7C
3C
ENDCHAR
STARTCHAR 0057
ENCODING 87
SWIDTH 1066 0
DWIDTH 10 0
BBX 10 6 0 0
BITMAP
EDC0
7F80
7F80
7F80
7F80
3300
ENDCHAR
STARTCHAR 0058
ENCODING 88
SWIDTH 853 0
DWIDTH 8 0
BBX 8 6 0 0
BITMAP
E6
3C
3C
3C
7E
E7
ENDCHAR
STARTCHAR 0059
ENCODING 89
SWIDTH 853 0
DWIDTH 8 0
BBX 8 6 0 0
BITMAP
E7
3C
3C
18
18
18
ENDCHAR
STARTCHAR 005A
ENCODING 90
SWIDTH 746 0
DWIDTH 7 0
BBX 7 6 0 0
BITMAP
FE
1C
38
70
60
FE
ENDCHAR
STARTCHAR 005B
ENCODING 91
SWIDTH 320 0
DWIDTH 3 0
BBX 3 8 0 -2
BITMAP
E0
C0
C0
C0
C0
C0
C0
E0
ENDCHAR
STARTCHAR 005C
ENCODING 92
SWIDTH 320 0
DWIDTH 3 0
BBX 3 6 0 0
BITMAP
80
40
40
40
40
20
ENDCHAR
STARTCHAR 005D
ENCODING 93
SWIDTH 320 0
DWIDTH 3 0
BBX 3 8 0 -2
BITMAP
E0
60
60
60
60
60
E0
E0
ENDCHAR
STARTCHAR 005E
ENCODING 94
SWIDTH 640 0
DWIDTH 6 0
BBX 5 3 0 3
BITMAP
30
70
D8
ENDCHAR
STARTCHAR 005F
ENCODING 95
SWIDTH 533 0
DWIDTH 5 0
BBX 5 1 0 -1
BITMAP
F8
ENDCHAR
STARTCHAR 0060
ENCODING 96
SWIDTH 320 0
DWIDTH 3 0
BBX 3 1 0 5
BITMAP
E0
ENDCHAR
STARTCHAR 0061
ENCODING 97
SWIDTH 640 0
DWIDTH 6 0
BBX 6 5 0 0
BITMAP
78
4C
7C
CC
FC
ENDCHAR
STARTCHAR 0062
ENCODING 98
SWIDTH 640 0
DWIDTH 6 0
BBX 6 6 0 0
BITMAP
C0
F8
CC
CC
CC
F8
ENDCHAR
STARTCHAR 0063
ENCODING 99
SWIDTH 640 0
DWIDTH 6 0
BBX 6 4 0 0
BITMAP
78
CC
CC
78
ENDCHAR
STARTCHAR 0064
ENCODING 100
SWIDTH 640 0
DWIDTH 6 0
BBX 6 6 0 0
BITMAP
0C
7C
CC
CC
CC
7C
ENDCHAR
STARTCHAR 0065
ENCODING 101
SWIDTH 640 0
DWIDTH 6 0
BBX 6 5 0 0
BITMAP
78
CC
FC
C0
7C
ENDCHAR
STARTCHAR 0066
ENCODING 102
SWIDTH 426 0
DWIDTH 4 0
BBX 4 6 0 0
BITMAP
70
60
F0
60
60
60
ENDCHAR
STARTCHAR 0067
ENCODING 103
SWIDTH 640 0
DWIDTH 6 0
BBX 6 7 0 -2
BITMAP
60
FC
CC
CC
7C
4C
78
ENDCHAR
STARTCHAR 0068
ENCODING 104
SWIDTH 640 0
DWIDTH 6 0
BBX 5 6 0 0
BITMAP
C0
F8
F8
D8
D8
D8
ENDCHAR
STARTCHAR 0069
ENCODING 105
SWIDTH 213 0
DWIDTH 2 0
BBX 2 6 0 0
BITMAP
C0
00
C0
C0
C0
C0
ENDCHAR
STARTCHAR 006A
ENCODING 106
SWIDTH 320 0
DWIDTH 3 0
BBX 3 8 0 -2
BITMAP
60
00
60
60
60
60
60
E0
ENDCHAR
STARTCHAR 006B
ENCODING 107
SWIDTH 640 0
DWIDTH 6 0
BBX 6 6 0 0
BITMAP
C0
C0
FC
F0
D8
DC
ENDCHAR
STARTCHAR 006C
ENCODING 108
SWIDTH 213 0
DWIDTH 2 0
BBX 2 6 0 0
BITMAP
C0
C0
C0
C0
C0
C0
ENDCHAR
STARTCHAR 006D
ENCODING 109
SWIDTH 960 0
DWIDTH 9 0
BBX 9 5 0 0
BITMAP
1B80
FF80
D980
D980
D980
ENDCHAR
STARTCHAR 006E
ENCODING 110
SWIDTH 640 0
DWIDTH 6 0
BBX 5 5 0 0
BITMAP
18
F8
D8
D8
D8
ENDCHAR
STARTCHAR 006F
ENCODING 111
SWIDTH 640 0
DWIDTH 6 0
BBX 6 4 0 0
BITMAP
78
CC
CC
78
ENDCHAR
STARTCHAR 0070
ENCODING 112
SWIDTH 640 0
DWIDTH 6 0
BBX 6 7 0 -2
BITMAP
18
FC
CC
CC
F8
C0
C0
ENDCHAR
STARTCHAR 0071
ENCODING 113
SWIDTH 640 0
DWIDTH 6 0
BBX 6 7 0 -2
BITMAP
60
FC
CC
CC
7C
0C
0C
ENDCHAR
STARTCHAR 0072
ENCODING 114
SWIDTH 426 0
DWIDTH 4 0
BBX 4 5 0 0
BITMAP
F0
C0
C0
C0
C0
ENDCHAR
STARTCHAR 0073
ENCODING 115
SWIDTH 640 0
DWIDTH 6 0
BBX 6 5 -1 0
BITMAP
3C
60
7C
4C
F8
ENDCHAR
STARTCHAR 0074
ENCODING 116
SWIDTH 426 0
DWIDTH 4 0
BBX 4 6 0 0
BITMAP
20
60
F0
60
60
70
ENDCHAR
STARTCHAR 0075
ENCODING 117
SWIDTH 640 0
DWIDTH 6 0
BBX 5 4 0 0
BITMAP
D8
D8
D8
F8
ENDCHAR
STARTCHAR 0076
ENCODING 118
SWIDTH 640 0
DWIDTH 6 0
BBX 6 4 0 0
BITMAP
EC
78
38
30
ENDCHAR
STARTCHAR 0077
ENCODING 119
SWIDTH 960 0
DWIDTH 9 0
BBX 9 4 0 0
BITMAP
DD80
7D00
7700
3300
ENDCHAR
STARTCHAR 0078
ENCODING 120
SWIDTH 746 0
DWIDTH 7 0
BBX 6 4 0 0
BITMAP
EC
38
78
EC
ENDCHAR
STARTCHAR 0079
ENCODING 121
SWIDTH 640 0
DWIDTH 6 0
BBX 6 6 0 -2
BITMAP
CC
68
78
38
30
F0
ENDCHAR
STARTCHAR 007A
ENCODING 122
SWIDTH 533 0
DWIDTH 5 0
BBX 5 4 0 0
BITMAP
F8
30
60
F8
ENDCHAR
STARTCHAR 007B
ENCODING 123
SWIDTH 426 0
DWIDTH 4 0
BBX 4 8 0 -2
BITMAP
70
60
60
E0
E0
60
60
70
ENDCHAR
STARTCHAR 007C
ENCODING 124
SWIDTH 213 0
DWIDTH 2 0
BBX 1 8 0 -2
BITMAP
80
80
80
80
80
80
80
80
ENDCHAR
STARTCHAR 007D
ENCODING 125
SWIDTH 426 0
DWIDTH 4 0
BBX 4 8 0 -2
BITMAP
E0
60
60
70
70
60
E0
C0
ENDCHAR
STARTCHAR 007E
ENCODING 126
SWIDTH 640 0
DWIDTH 6 0
BBX 6 2 0 2
BITMAP
E4
9C
ENDCHAR
STARTCHAR 00A0
ENCODING 160
SWIDTH 533 0
DWIDTH 5 0
BBX 0 0 0 0
BITMAP
ENDCHAR
STARTCHAR 00A1
ENCODING 161
SWIDTH 213 0
DWIDTH 2 0
BBX 2 7 0 -2
BITMAP
C0
C0
00
40
C0
C0
C0
ENDCHAR
STARTCHAR 00A2
ENCODING 162
SWIDTH 640 0
DWIDTH 6 0
BBX 6 8 0 -2
BITMAP
18
78
DC
E0
EC
78
40
40
ENDCHAR
STARTCHAR 00A3
ENCODING 163
SWIDTH 640 0
DWIDTH 6 0
BBX 6 6 0 0
BITMAP
7C
6C
70
60
E0
9C
ENDCHAR
STARTCHAR 00A4
ENCODING 164
SWIDTH 640 0
DWIDTH 6 0
BBX 4 4 1 0
BITMAP
F0
90
90
F0
ENDCHAR
STARTCHAR 00A5
ENCODING 165
SWIDTH 746 0
DWIDTH 7 0
BBX 6 7 0 0
BITMAP
CC
DC
78
FC
30
FC
30
ENDCHAR
STARTCHAR 00A6
ENCODING 166
SWIDTH 213 0
DWIDTH 2 0
BBX 1 8 0 -2
BITMAP
80
80
80
00
00
80
80
80
ENDCHAR
STARTCHAR 00A7
ENCODING 167
SWIDTH 640 0
DWIDTH 6 0
BBX 6 8 0 -2
BITMAP
3C
60
78
DC
FC
3C
4C
78
ENDCHAR
STARTCHAR 00A8
ENCODING 168
SWIDTH 426 0
DWIDTH 4 0
BBX 3 1 0 5
BITMAP
A0
ENDCHAR
STARTCHAR 00A9
ENCODING 169
SWIDTH 853 0
DWIDTH 8 0
BBX 7 6 0 0
BITMAP
38
DE
A6
A6
DE
38
ENDCHAR
STARTCHAR 00AA
ENCODING 170
SWIDTH 426 0
DWIDTH 4 0
BBX 3 3 0 3
BITMAP
E0
60
E0
ENDCHAR
STARTCHAR 00AB
ENCODING 171
SWIDTH 640 0
DWIDTH 6 0
BBX 6 4 0 0
BITMAP
6C
D0
58
2C
ENDCHAR
STARTCHAR 00AC
ENCODING 172
SWIDTH 640 0
DWIDTH 6 0
BBX 6 3 -1 1
BITMAP
FC
0C
0C
ENDCHAR
STARTCHAR 00AD
ENCODING 173
SWIDTH 320 0
DWIDTH 3 0
BBX 3 1 0 2
BITMAP
E0
ENDCHAR
STARTCHAR 00AE
ENCODING 174
SWIDTH 853 0
DWIDTH 8 0
BBX 7 6 0 0
BITMAP
38
FE
AA
B2
EE
38
ENDCHAR
STARTCHAR 00AF
ENCODING 175
SWIDTH 533 0
DWIDTH 5 0
BBX 5 1 0 7
BITMAP
F8
ENDCHAR
STARTCHAR 00B0
ENCODING 176
SWIDTH 320 0
DWIDTH 3 0
BBX 3 2 0 4
BITMAP
E0
E0
ENDCHAR
STARTCHAR 00B1
ENCODING 177
SWIDTH 533 0
DWIDTH 5 0
BBX 6 6 -1 0
BITMAP
30
30
FC
30
30
7C
ENDCHAR
STARTCHAR 00B2
ENCODING 178
SWIDTH 426 0
DWIDTH 4 0
BBX 4 3 0 3
BITMAP
70
A0
F0
ENDCHAR
STARTCHAR 00B3
ENCODING 179
SWIDTH 426 0
DWIDTH 4 0
BBX 3 3 1 3
BITMAP
E0
60
E0
ENDCHAR
STARTCHAR 00B4
ENCODING 180
SWIDTH 320 0
DWIDTH 3 0
BBX 3 1 0 5
BITMAP
E0
ENDCHAR
STARTCHAR 00B5
ENCODING 181
SWIDTH 640 0
DWIDTH 6 0
BBX 5 6 0 -2
BITMAP
D8
D8
D8
F8
C0
C0
ENDCHAR
STARTCHAR 00B6
ENCODING 182
SWIDTH 746 0
DWIDTH 7 0
BBX 7 8 0 -2
BITMAP
7E
F4
74
14
14
14
14
14
ENDCHAR
STARTCHAR 00B7
ENCODING 183
SWIDTH 213 0
DWIDTH 2 0
BBX 2 2 0 2
BITMAP
C0
C0
ENDCHAR
STARTCHAR 00B8
ENCODING 184
SWIDTH 320 0
DWIDTH 3 0
BBX 3 2 0 -2
BITMAP
60
E0
ENDCHAR
STARTCHAR 00B9
ENCODING 185
SWIDTH 320 0
DWIDTH 3 0
BBX 2 3 0 3
BITMAP
40
C0
40
ENDCHAR
STARTCHAR 00BA
ENCODING 186
SWIDTH 426 0
DWIDTH 4 0
BBX 4 3 0 3
BITMAP
F0
90
70
ENDCHAR
STARTCHAR 00BB
ENCODING 187
SWIDTH 640 0
DWIDTH 6 0
BBX 6 4 0 0
BITMAP
D8
68
7C
D0
ENDCHAR
STARTCHAR 00BC
ENCODING 188
SWIDTH 960 0
DWIDTH 9 0
BBX 9 7 0 -1
BITMAP
4200
C400
4800
0900
1300
2780
2000
ENDCHAR
STARTCHAR 00BD
ENCODING 189
SWIDTH 960 0
DWIDTH 9 0
BBX 9 7 0 -1
BITMAP
4200
C400
4800
0B80
1500
2380
2400
ENDCHAR
STARTCHAR 00BE
ENCODING 190
SWIDTH 960 0
DWIDTH 9 0
BBX 9 7 1 -1
BITMAP
E600
6400
E800
1100
1300
2780
4000
ENDCHAR
STARTCHAR 00BF
ENCODING 191
SWIDTH 640 0
DWIDTH 6 0
BBX 5 6 0 -2
BITMAP
30
00
30
60
D8
78
ENDCHAR
STARTCHAR 00C0
ENCODING 192
SWIDTH 853 0
DWIDTH 8 0
BBX 8 8 0 0
BITMAP
30
08
3C
7C
7E
66
7E
E7
ENDCHAR
STARTCHAR 00C1
ENCODING 193
SWIDTH 853 0
DWIDTH 8 0
BBX 8 8 0 0
BITMAP
1C
00
3C
7C
7E
66
7E
E7
ENDCHAR
STARTCHAR 00C2
ENCODING 194
SWIDTH 853 0
DWIDTH 8 0
BBX 8 8 0 0
BITMAP
18
24
38
3C
3C
6E
7E
E7
ENDCHAR
STARTCHAR 00C3
ENCODING 195
SWIDTH 853 0
DWIDTH 8 0
BBX 8 8 0 0
BITMAP
14
28
38
3C
3C
6E
7E
E7
ENDCHAR
STARTCHAR 00C4
ENCODING 196
SWIDTH 853 0
DWIDTH 8 0
BBX 8 8 0 0
BITMAP
28
00
3C
7C
7E
66
7E
E7
ENDCHAR
STARTCHAR 00C5
ENCODING 197
SWIDTH 853 0
DWIDTH 8 0
BBX 8 8 0 0
BITMAP
18
18
18
3C
3C
6E
7E
E7
ENDCHAR
STARTCHAR 00C6
ENCODING 198
SWIDTH 1066 0
DWIDTH 10 0
BBX 10 6 0 0
BITMAP
1FC0
1600
37C0
3600
7E00
E7C0
ENDCHAR
STARTCHAR 00C7
ENCODING 199
SWIDTH 640 0
DWIDTH 6 0
BBX 5 8 0 -2
BITMAP
78
C0
C0
C0
C0
78
10
38
ENDCHAR
STARTCHAR 00C8
ENCODING 200
SWIDTH 746 0
DWIDTH 7 0
BBX 6 8 0 0
BITMAP
60
10
FC
C0
C0
F8
C0
FC
ENDCHAR
STARTCHAR 00C9
ENCODING 201
SWIDTH 746 0
DWIDTH 7 0
BBX 6 8 0 0
BITMAP
18
20
FC
C0
C0
F8
C0
FC
ENDCHAR
STARTCHAR 00CA
ENCODING 202
SWIDTH 640 0
DWIDTH 6 0
BBX 6 8 0 0
BITMAP
30
48
FC
C0
F8
C0
C0
FC
ENDCHAR
STARTCHAR 00CB
ENCODING 203
SWIDTH 746 0
DWIDTH 7 0
BBX 6 8 0 0
BITMAP
50
00
FC
C0
C0
F8
C0
FC
ENDCHAR
STARTCHAR 00CC
ENCODING 204
SWIDTH 320 0
DWIDTH 3 0
BBX 3 8 0 0
BITMAP
C0
20
60
60
60
60
60
60
ENDCHAR
STARTCHAR 00CD
ENCODING 205
SWIDTH 320 0
DWIDTH 3 0
BBX 3 8 0 0
BITMAP
60
80
C0
C0
C0
C0
C0
C0
ENDCHAR
STARTCHAR 00CE
ENCODING 206
SWIDTH 426 0
DWIDTH 4 0
BBX 4 8 0 0
BITMAP
60
90
60
60
60
60
60
60
ENDCHAR
STARTCHAR 00CF
ENCODING 207
SWIDTH 426 0
DWIDTH 4 0
BBX 3 8 0 0
BITMAP
A0
00
60
60
60
60
60
60
ENDCHAR
STARTCHAR 00D0
ENCODING 208
SWIDTH 746 0
DWIDTH 7 0
BBX 7 6 0 0
BITMAP
7C
66
F6
66
66
7C
ENDCHAR
STARTCHAR 00D1
ENCODING 209
SWIDTH 746 0
DWIDTH 7 0
BBX 8 8 0 0
BITMAP
1C
00
E7
E6
F6
DE
CE
C6
ENDCHAR
STARTCHAR 00D2
ENCODING 210
SWIDTH 853 0
DWIDTH 8 0
BBX 7 8 0 0
BITMAP
30
08
7C
C6
C6
C6
C6
7C
ENDCHAR
STARTCHAR 00D3
ENCODING 211
SWIDTH 853 0
DWIDTH 8 0
BBX 7 8 0 0
BITMAP
18
00
7C
C6
C6
C6
C6
7C
ENDCHAR
STARTCHAR 00D4
ENCODING 212
SWIDTH 853 0
DWIDTH 8 0
BBX 7 8 0 0
BITMAP
18
24
7C
C6
C6
C6
C6
7C
ENDCHAR
STARTCHAR 00D5
ENCODING 213
SWIDTH 853 0
DWIDTH 8 0
BBX 7 8 0 0
BITMAP
38
00
7C
C6
C6
C6
C6
7C
ENDCHAR
STARTCHAR 00D6
ENCODING 214
SWIDTH 853 0
DWIDTH 8 0
BBX 7 8 0 0
BITMAP
28
00
7C
C6
C6
C6
C6
7C
ENDCHAR
STARTCHAR 00D7
ENCODING 215
SWIDTH 640 0
DWIDTH 6 0
BBX 5 4 0 1
BITMAP
D8
70
70
D8
ENDCHAR
STARTCHAR 00D8
ENCODING 216
SWIDTH 853 0
DWIDTH 8 0
BBX 8 6 0 0
BITMAP
3D
CF
DF
FB
F3
FE
ENDCHAR
STARTCHAR 00D9
ENCODING 217
SWIDTH 746 0
DWIDTH 7 0
BBX 7 8 0 0
BITMAP
30
00
C6
C6
C6
C6
FE
7C
ENDCHAR
STARTCHAR 00DA
ENCODING 218
SWIDTH 746 0
DWIDTH 7 0
BBX 7 8 0 0
BITMAP
18
00
C6
C6
C6
C6
FE
7C
ENDCHAR
STARTCHAR 00DB
ENCODING 219
SWIDTH 746 0
DWIDTH 7 0
BBX 7 8 0 0
BITMAP
38
00
C6
C6
C6
C6
C6
7C
ENDCHAR
STARTCHAR 00DC
ENCODING 220
SWIDTH 746 0
DWIDTH 7 0
BBX 7 8 0 0
BITMAP
28
00
C6
C6
C6
C6
FE
7C
ENDCHAR
STARTCHAR 00DD
ENCODING 221
SWIDTH 853 0
DWIDTH 8 0
BBX 8 8 0 0
BITMAP
0C
10
E7
3C
3C
18
18
18
ENDCHAR
STARTCHAR 00DE
ENCODING 222
SWIDTH 640 0
DWIDTH 6 0
BBX 6 6 0 0
BITMAP
C0
F8
CC
CC
F8
C0
ENDCHAR
STARTCHAR 00DF
ENCODING 223
SWIDTH 640 0
DWIDTH 6 0
BBX 6 6 0 0
BITMAP
78
D8
F0
D8
CC
FC
ENDCHAR
STARTCHAR 00E0
ENCODING 224
SWIDTH 640 0
DWIDTH 6 0
BBX 6 6 0 0
BITMAP
70
78
4C
7C
CC
FC
ENDCHAR
STARTCHAR 00E1
ENCODING 225
SWIDTH 640 0
DWIDTH 6 0
BBX 6 6 0 0
BITMAP
38
78
4C
7C
CC
FC
ENDCHAR
STARTCHAR 00E2
ENCODING 226
SWIDTH 640 0
DWIDTH 6 0
BBX 6 6 0 0
BITMAP
30
78
4C
7C
CC
FC
ENDCHAR
STARTCHAR 00E3
ENCODING 227
SWIDTH 640 0
DWIDTH 6 0
BBX 6 6 0 0
BITMAP
78
78
4C
7C
CC
FC
ENDCHAR
STARTCHAR 00E4
ENCODING 228
SWIDTH 640 0
DWIDTH 6 0
BBX 6 6 0 0
BITMAP
50
78
4C
7C
CC
FC
ENDCHAR
STARTCHAR 00E5
ENCODING 229
SWIDTH 640 0
DWIDTH 6 0
BBX 6 7 0 0
BITMAP
30
30
F8
4C
7C
CC
FC
ENDCHAR
STARTCHAR 00E6
ENCODING 230
SWIDTH 960 0
DWIDTH 9 0
BBX 9 5 0 0
BITMAP
7F00
CD80
7F80
DC00
FF80
ENDCHAR
STARTCHAR 00E7
ENCODING 231
SWIDTH 640 0
DWIDTH 6 0
BBX 6 6 0 -2
BITMAP
78
CC
CC
78
30
70
ENDCHAR
STARTCHAR 00E8
ENCODING 232
SWIDTH 640 0
DWIDTH 6 0
BBX 6 6 0 0
BITMAP
70
78
CC
FC
C0
7C
ENDCHAR
STARTCHAR 00E9
ENCODING 233
SWIDTH 640 0
DWIDTH 6 0
BBX 6 6 0 0
BITMAP
38
78
CC
FC
C0
7C
ENDCHAR
STARTCHAR 00EA
ENCODING 234
SWIDTH 640 0
DWIDTH 6 0
BBX 6 6 0 0
BITMAP
30
78
CC
FC
C0
7C
ENDCHAR
STARTCHAR 00EB
ENCODING 235
SWIDTH 640 0
DWIDTH 6 0
BBX 6 6 0 0
BITMAP
50
78
CC
FC
C0
7C
ENDCHAR
STARTCHAR 00EC
ENCODING 236
SWIDTH 320 0
DWIDTH 3 0
BBX 3 6 0 0
BITMAP
C0
20
60
60
60
60
ENDCHAR
STARTCHAR 00ED
ENCODING 237
SWIDTH 320 0
DWIDTH 3 0
BBX 3 6 0 0
BITMAP
60
80
C0
C0
C0
C0
ENDCHAR
STARTCHAR 00EE
ENCODING 238
SWIDTH 426 0
DWIDTH 4 0
BBX 4 6 0 0
BITMAP
60
90
60
60
60
60
ENDCHAR
STARTCHAR 00EF
ENCODING 239
SWIDTH 426 0
DWIDTH 4 0
BBX 3 6 0 0
BITMAP
E0
00
60
60
60
60
ENDCHAR
STARTCHAR 00F0
ENCODING 240
SWIDTH 640 0
DWIDTH 6 0
BBX 6 6 0 0
BITMAP
78
58
7C
CC
CC
78
ENDCHAR
STARTCHAR 00F1
ENCODING 241
SWIDTH 640 0
DWIDTH 6 0
BBX 5 6 0 0
BITMAP
78
18
F8
D8
D8
D8
ENDCHAR
STARTCHAR 00F2
ENCODING 242
SWIDTH 640 0
DWIDTH 6 0
BBX 6 6 0 0
BITMAP
70
00
78
CC
CC
78
ENDCHAR
STARTCHAR 00F3
ENCODING 243
SWIDTH 640 0
DWIDTH 6 0
BBX 6 6 0 0
BITMAP
38
00
78
CC
CC
78
ENDCHAR
STARTCHAR 00F4
ENCODING 244
SWIDTH 640 0
DWIDTH 6 0
BBX 6 6 0 0
BITMAP
30
48
78
CC
CC
78
ENDCHAR
STARTCHAR 00F5
ENCODING 245
SWIDTH 640 0
DWIDTH 6 0
BBX 6 5 0 0
BITMAP
78
78
CC
CC
78
ENDCHAR
STARTCHAR 00F6
ENCODING 246
SWIDTH 640 0
DWIDTH 6 0
BBX 6 6 0 0
BITMAP
50
00
78
CC
CC
78
ENDCHAR
STARTCHAR 00F7
ENCODING 247
SWIDTH 533 0
DWIDTH 5 0
BBX 5 5 0 0
BITMAP
30
00
F8
30
30
ENDCHAR
STARTCHAR 00F8
ENCODING 248
SWIDTH 640 0
DWIDTH 6 0
BBX 6 5 0 0
BITMAP
7C
DC
FC
EC
F8
ENDCHAR
STARTCHAR 00F9
ENCODING 249
SWIDTH 640 0
DWIDTH 6 0
BBX 5 6 0 0
BITMAP
70
00
D8
D8
D8
F8
ENDCHAR
STARTCHAR 00FA
ENCODING 250
SWIDTH 640 0
DWIDTH 6 0
BBX 5 6 0 0
BITMAP
30
00
D8
D8
D8
F8
ENDCHAR
STARTCHAR 00FB
ENCODING 251
SWIDTH 640 0
DWIDTH 6 0
BBX 5 6 0 0
BITMAP
30
48
D8
D8
D8
F8
ENDCHAR
STARTCHAR 00FC
ENCODING 252
SWIDTH 640 0
DWIDTH 6 0
BBX 5 6 0 0
BITMAP
50
00
D8
D8
D8
F8
ENDCHAR
STARTCHAR 00FD
ENCODING 253
SWIDTH 640 0
DWIDTH 6 0
BBX 6 8 0 -2
BITMAP
38
00
CC
68
78
38
30
F0
ENDCHAR
STARTCHAR 00FE
ENCODING 254
SWIDTH 640 0
DWIDTH 6 0
BBX 6 8 0 -2
BITMAP
C0
F8
CC
CC
CC
F8
C0
C0
ENDCHAR
STARTCHAR 00FF
ENCODING 255
SWIDTH 640 0
DWIDTH 6 0
BBX 6 8 0 -2
BITMAP
50
00
CC
68
78
38
30
F0
ENDCHAR
ENDFONT
